<svg width="455" height="101" viewBox="0 0 455 101" fill="none" xmlns="http://www.w3.org/2000/svg">
<g clip-path="url(#clip0_10389_1393)">
<path fill-rule="evenodd" clip-rule="evenodd" d="M100.414 50.2069C100.414 77.9355 77.9355 100.414 50.2069 100.414C22.4784 100.414 0 77.9355 0 50.2069C0 22.4784 22.4784 0 50.2069 0C77.9355 0 100.414 22.4784 100.414 50.2069ZM22.8275 57.463H36.1584C36.5553 57.463 36.8459 57.8349 36.7514 58.2183L29.8622 86.1701C29.7156 86.7647 30.4371 87.1811 30.8784 86.7569L77.3271 42.0511C77.7237 41.6701 77.4542 41.0008 76.9041 41.0008H60.5991C60.0923 41.0008 59.8071 40.4197 60.1162 40.0174L75.3837 20.215C75.6941 19.813 75.4073 19.2316 74.9005 19.2316H43.6514L22.2972 56.549C22.064 56.9563 22.3587 57.463 22.8275 57.463Z" fill="#B4B4B4"/>
<path d="M140.623 20.0824V76.9019H130.35V20.0824H140.623Z" fill="#B4B4B4"/>
<path d="M161.329 51.9324V76.9019H151.305V34.2872H160.886V41.5286H161.384C162.362 39.1425 163.922 37.2466 166.064 35.8411C168.224 34.4353 170.891 33.7324 174.067 33.7324C177.002 33.7324 179.559 34.3613 181.737 35.6189C183.934 36.8766 185.632 38.6985 186.832 41.0846C188.051 43.4707 188.65 46.3651 188.632 49.7685V76.9019H178.608V51.3221C178.608 48.4738 177.869 46.2449 176.392 44.6358C174.934 43.0267 172.913 42.2221 170.328 42.2221C168.575 42.2221 167.015 42.6106 165.648 43.3872C164.301 44.1456 163.239 45.2461 162.464 46.6889C161.707 48.1314 161.329 49.8793 161.329 51.9324Z" fill="#B4B4B4"/>
<path d="M232.439 45.5514L223.301 46.5502C223.043 45.6252 222.59 44.756 221.944 43.9423C221.317 43.1283 220.467 42.4719 219.397 41.9723C218.326 41.4731 217.015 41.2233 215.465 41.2233C213.378 41.2233 211.625 41.6764 210.203 42.5826C208.8 43.4892 208.108 44.6634 208.126 46.1062C208.108 47.3454 208.56 48.3536 209.483 49.1303C210.425 49.9072 211.975 50.5451 214.135 51.0447L221.391 52.5983C225.415 53.4675 228.405 54.8457 230.362 56.7322C232.338 58.6187 233.334 61.088 233.353 64.1399C233.334 66.8216 232.55 69.1892 230.999 71.2423C229.467 73.2766 227.335 74.8676 224.603 76.0142C221.87 77.1611 218.732 77.7344 215.188 77.7344C209.982 77.7344 205.791 76.643 202.616 74.4606C199.441 72.2596 197.549 69.1986 196.939 65.2774L206.714 64.3338C207.157 66.2577 208.099 67.7096 209.539 68.6899C210.979 69.6702 212.853 70.1604 215.16 70.1604C217.542 70.1604 219.452 69.6702 220.892 68.6899C222.35 67.7096 223.08 66.4981 223.08 65.0553C223.08 63.8346 222.609 62.8267 221.667 62.0312C220.744 61.2358 219.304 60.6254 217.348 60.2002L210.093 58.6743C206.013 57.8233 202.994 56.3899 201.038 54.374C199.081 52.3394 198.112 49.7685 198.13 46.661C198.112 44.0346 198.823 41.7596 200.262 39.836C201.721 37.8939 203.742 36.3959 206.327 35.3416C208.93 34.2687 211.929 33.7324 215.326 33.7324C220.31 33.7324 224.233 34.7959 227.095 36.9231C229.975 39.05 231.756 41.9262 232.439 45.5514Z" fill="#B4B4B4"/>
<path d="M262.857 34.2872V42.0554H238.406V34.2872H262.857ZM244.443 24.0775H254.467V64.0843C254.467 65.4346 254.67 66.4701 255.076 67.1915C255.501 67.8944 256.055 68.3755 256.738 68.6343C257.421 68.8932 258.177 69.0228 259.008 69.0228C259.636 69.0228 260.208 68.9764 260.725 68.8838C261.26 68.7916 261.666 68.7084 261.944 68.6343L263.633 76.4858C263.097 76.6709 262.331 76.8742 261.334 77.0961C260.356 77.3183 259.156 77.4475 257.734 77.4846C255.224 77.5586 252.962 77.1792 250.95 76.3471C248.938 75.4964 247.341 74.1832 246.16 72.4074C244.997 70.632 244.424 68.4122 244.443 65.749V24.0775Z" fill="#B4B4B4"/>
<path d="M283.481 77.762C280.785 77.762 278.358 77.2813 276.198 76.3195C274.056 75.3392 272.358 73.8964 271.103 71.9913C269.866 70.0863 269.248 67.7372 269.248 64.9445C269.248 62.5399 269.691 60.5517 270.576 58.9793C271.463 57.4072 272.672 56.1495 274.204 55.2062C275.736 54.263 277.462 53.551 279.382 53.0699C281.321 52.5707 283.324 52.2098 285.391 51.988C287.883 51.7291 289.905 51.4978 291.456 51.2945C293.006 51.0723 294.132 50.7394 294.834 50.2957C295.554 49.8331 295.914 49.1211 295.914 48.1594V47.9927C295.914 45.9029 295.295 44.2843 294.059 43.1377C292.822 41.9908 291.04 41.4175 288.714 41.4175C286.259 41.4175 284.311 41.9538 282.872 43.0267C281.45 44.0995 280.49 45.3663 279.992 46.8276L270.632 45.4959C271.37 42.9065 272.589 40.7422 274.287 39.0038C275.986 37.2466 278.062 35.9334 280.518 35.0642C282.973 34.1764 285.687 33.7324 288.659 33.7324C290.708 33.7324 292.748 33.9728 294.778 34.4538C296.809 34.9346 298.664 35.73 300.344 36.8399C302.024 37.931 303.372 39.4199 304.387 41.3064C305.421 43.193 305.938 45.5514 305.938 48.3812V76.9019H296.302V71.0481H295.969C295.36 72.2317 294.502 73.3416 293.394 74.3774C292.305 75.3944 290.929 76.2175 289.268 76.8463C287.625 77.457 285.696 77.762 283.481 77.762ZM286.084 70.3822C288.096 70.3822 289.84 69.9846 291.317 69.1892C292.794 68.3755 293.929 67.3026 294.723 65.9709C295.535 64.6392 295.942 63.1872 295.942 61.6151V56.5935C295.628 56.8524 295.092 57.0927 294.335 57.3149C293.597 57.5368 292.766 57.731 291.843 57.8973C290.92 58.0639 290.007 58.2117 289.102 58.3413C288.197 58.4706 287.413 58.5817 286.748 58.6743C285.253 58.8776 283.914 59.2105 282.733 59.6731C281.551 60.1353 280.619 60.7826 279.936 61.6151C279.253 62.4288 278.911 63.4831 278.911 64.7779C278.911 66.6273 279.585 68.024 280.933 68.9673C282.281 69.9106 283.997 70.3822 286.084 70.3822Z" fill="#B4B4B4"/>
<path d="M326.04 51.9324V76.9019H316.018V34.2872H325.598V41.5286H326.097C327.076 39.1425 328.635 37.2466 330.775 35.8411C332.937 34.4353 335.605 33.7324 338.78 33.7324C341.714 33.7324 344.272 34.3613 346.449 35.6189C348.646 36.8766 350.343 38.6985 351.545 41.0846C352.763 43.4707 353.362 46.3651 353.343 49.7685V76.9019H343.321V51.3221C343.321 48.4738 342.58 46.2449 341.105 44.6358C339.646 43.0267 337.625 42.2221 335.04 42.2221C333.286 42.2221 331.726 42.6106 330.361 43.3872C329.012 44.1456 327.951 45.2461 327.176 46.6889C326.42 48.1314 326.04 49.8793 326.04 51.9324Z" fill="#B4B4B4"/>
<path d="M384.773 34.2872V42.0554H360.322V34.2872H384.773ZM366.36 24.0775H376.382V64.0843C376.382 65.4346 376.586 66.4701 376.991 67.1915C377.418 67.8944 377.97 68.3755 378.654 68.6343C379.338 68.8932 380.094 69.0228 380.926 69.0228C381.553 69.0228 382.125 68.9764 382.642 68.8838C383.176 68.7916 383.584 68.7084 383.86 68.6343L385.548 76.4858C385.015 76.6709 384.249 76.8742 383.251 77.0961C382.272 77.3183 381.073 77.4475 379.652 77.4846C377.142 77.5586 374.879 77.1792 372.868 76.3471C370.853 75.4964 369.256 74.1832 368.076 72.4074C366.912 70.632 366.341 68.4122 366.36 65.749V24.0775Z" fill="#B4B4B4"/>
<path d="M404.096 20.0824V76.9019H394.071V20.0824H404.096Z" fill="#B4B4B4"/>
<path d="M420.633 92.8824C419.268 92.8824 418.004 92.7716 416.84 92.5495C415.694 92.3461 414.781 92.1058 414.097 91.8281L416.425 84.0043C417.881 84.4298 419.184 84.6334 420.329 84.6149C421.474 84.5964 422.478 84.2355 423.348 83.5326C424.232 82.8486 424.979 81.7016 425.591 80.0925L426.448 77.7899L411.025 34.2872H421.659L431.459 66.4701H431.905L441.733 34.2872H452.395L435.366 82.0622C434.572 84.319 433.518 86.2516 432.209 87.8608C430.897 89.4884 429.291 90.7276 427.389 91.5786C425.506 92.4478 423.253 92.8824 420.633 92.8824Z" fill="#B4B4B4"/>
</g>
<defs>
<clipPath id="clip0_10389_1393">
<rect width="455" height="100.414" fill="white"/>
</clipPath>
</defs>
</svg>
